<svg id="visual" viewBox="0 0 1366 720" width="1366" height="720" xmlns="http://www.w3.org/2000/svg" xmlns:xlink="http://www.w3.org/1999/xlink" version="1.1"><rect x="0" y="0" width="1366" height="720" fill="#001220"></rect><path d="M965 720L957.2 700C949.3 680 933.7 640 935.5 600C937.3 560 956.7 520 957.3 480C958 440 940 400 920.2 360C900.3 320 878.7 280 874.3 240C870 200 883 160 877.5 120C872 80 848 40 836 20L824 0L1366 0L1366 20C1366 40 1366 80 1366 120C1366 160 1366 200 1366 240C1366 280 1366 320 1366 360C1366 400 1366 440 1366 480C1366 520 1366 560 1366 600C1366 640 1366 680 1366 700L1366 720Z" fill="#2f2929"></path><path d="M886 720L912.2 700C938.3 680 990.7 640 1010.7 600C1030.7 560 1018.3 520 1001.3 480C984.3 440 962.7 400 954.2 360C945.7 320 950.3 280 962.3 240C974.3 200 993.7 160 994.8 120C996 80 979 40 970.5 20L962 0L1366 0L1366 20C1366 40 1366 80 1366 120C1366 160 1366 200 1366 240C1366 280 1366 320 1366 360C1366 400 1366 440 1366 480C1366 520 1366 560 1366 600C1366 640 1366 680 1366 700L1366 720Z" fill="#553c32"></path><path d="M1082 720L1073.8 700C1065.7 680 1049.3 640 1040.5 600C1031.7 560 1030.3 520 1040 480C1049.7 440 1070.3 400 1068.3 360C1066.3 320 1041.7 280 1026.7 240C1011.7 200 1006.3 160 1022.5 120C1038.7 80 1076.3 40 1095.2 20L1114 0L1366 0L1366 20C1366 40 1366 80 1366 120C1366 160 1366 200 1366 240C1366 280 1366 320 1366 360C1366 400 1366 440 1366 480C1366 520 1366 560 1366 600C1366 640 1366 680 1366 700L1366 720Z" fill="#715632"></path><path d="M1168 720L1166.5 700C1165 680 1162 640 1156.3 600C1150.7 560 1142.3 520 1135 480C1127.7 440 1121.3 400 1110.2 360C1099 320 1083 280 1089.2 240C1095.3 200 1123.7 160 1125 120C1126.3 80 1100.7 40 1087.8 20L1075 0L1366 0L1366 20C1366 40 1366 80 1366 120C1366 160 1366 200 1366 240C1366 280 1366 320 1366 360C1366 400 1366 440 1366 480C1366 520 1366 560 1366 600C1366 640 1366 680 1366 700L1366 720Z" fill="#7a7835"></path><path d="M1226 720L1228.5 700C1231 680 1236 640 1227 600C1218 560 1195 520 1191 480C1187 440 1202 400 1204.2 360C1206.3 320 1195.7 280 1187.3 240C1179 200 1173 160 1168.7 120C1164.3 80 1161.7 40 1160.3 20L1159 0L1366 0L1366 20C1366 40 1366 80 1366 120C1366 160 1366 200 1366 240C1366 280 1366 320 1366 360C1366 400 1366 440 1366 480C1366 520 1366 560 1366 600C1366 640 1366 680 1366 700L1366 720Z" fill="#6a9d4c"></path><path d="M1255 720L1258.3 700C1261.7 680 1268.3 640 1266.8 600C1265.3 560 1255.7 520 1255 480C1254.3 440 1262.7 400 1274.3 360C1286 320 1301 280 1301.2 240C1301.3 200 1286.7 160 1282.5 120C1278.3 80 1284.7 40 1287.8 20L1291 0L1366 0L1366 20C1366 40 1366 80 1366 120C1366 160 1366 200 1366 240C1366 280 1366 320 1366 360C1366 400 1366 440 1366 480C1366 520 1366 560 1366 600C1366 640 1366 680 1366 700L1366 720Z" fill="#10c482"></path></svg>