<svg id="visual" viewBox="0 0 1366 720" width="1366" height="720" xmlns="http://www.w3.org/2000/svg" xmlns:xlink="http://www.w3.org/1999/xlink" version="1.1"><rect x="0" y="0" width="1366" height="720" fill="#001220"></rect><defs><linearGradient id="grad1_0" x1="47.3%" y1="0%" x2="100%" y2="100%"><stop offset="12.055555555555557%" stop-color="#001220" stop-opacity="1"></stop><stop offset="87.94444444444446%" stop-color="#001220" stop-opacity="1"></stop></linearGradient></defs><defs><linearGradient id="grad2_0" x1="0%" y1="0%" x2="52.7%" y2="100%"><stop offset="12.055555555555557%" stop-color="#001220" stop-opacity="1"></stop><stop offset="87.94444444444446%" stop-color="#001220" stop-opacity="1"></stop></linearGradient></defs><g transform="translate(1366, 0)"><path d="M0 529C-90.9 576.2 -181.7 623.4 -248 598.7C-314.2 573.9 -355.8 477.2 -407.3 407.3C-458.7 337.4 -520 294.2 -557.1 230.8C-594.2 167.3 -607.1 83.7 -620 0L0 0Z" fill="#10c482"></path></g><g transform="translate(0, 720)"><path d="M0 -593C97 -618.7 194 -644.5 248 -598.7C302 -552.9 313 -435.6 369.1 -369.1C425.2 -302.6 526.5 -286.9 564.5 -233.8C602.5 -180.8 577.2 -90.4 552 0L0 0Z" fill="#10c482"></path></g></svg>