<svg version="1.1" xmlns="http://www.w3.org/2000/svg" width="500" height="500">
<path d="M0 0 C165 0 330 0 500 0 C500 165 500 330 500 500 C335 500 170 500 0 500 C0 335 0 170 0 0 Z " fill="#FEFEFD" transform="translate(0,0)"/>
<path d="M0 0 C7.30759231 4.75892408 11.52348486 11.36203936 13.69921875 19.7578125 C15.22044951 28.71298226 11.95735671 36.51993404 7.265625 44.0625 C-0.6006283 54.77315911 -10.62072954 64.41577869 -22.30078125 70.7578125 C-23.22117187 71.27730469 -24.1415625 71.79679687 -25.08984375 72.33203125 C-37.14087411 78.77981973 -50.45387101 83.74382353 -64.30078125 81.7578125 C-67.96733193 80.47417837 -69.84470466 78.31365585 -72.30078125 75.3203125 C-73.30078125 72.7578125 -73.30078125 72.7578125 -72.55078125 70.0078125 C-71.30078125 67.7578125 -71.30078125 67.7578125 -70.30078125 66.7578125 C-66.17606221 67.11962996 -62.54144457 67.68962456 -58.55078125 68.8203125 C-53.2164774 70.26057454 -47.78027378 69.92219728 -42.30078125 69.7578125 C-42.30078125 69.0978125 -42.30078125 68.4378125 -42.30078125 67.7578125 C-43.02265625 67.5309375 -43.74453125 67.3040625 -44.48828125 67.0703125 C-48.50469767 65.19598484 -51.0857062 62.493634 -53.61328125 58.8828125 C-55.07342814 54.36963119 -54.59427723 50.63830043 -53.11328125 46.1953125 C-51.16719393 42.50445724 -49.08440877 39.84237273 -46.30078125 36.7578125 C-45.64851563 37.09554687 -44.99625 37.43328125 -44.32421875 37.78125 C-35.49971594 42.28460984 -28.3815224 45.02599303 -18.30078125 43.7578125 C-11.66705904 41.37950024 -7.39928968 37.6400531 -4.05078125 31.4453125 C-2.58610592 26.19689255 -2.53175864 22.35737952 -4.86328125 17.5078125 C-8.45288631 13.45800167 -11.57547883 11.00448221 -16.9765625 10.515625 C-19.43223635 10.50867826 -21.85205856 10.58044023 -24.30078125 10.7578125 C-23.31078125 11.4178125 -22.32078125 12.0778125 -21.30078125 12.7578125 C-19.36341753 14.36922166 -18.43113241 15.28080282 -17.76171875 17.73046875 C-17.6260121 21.03060764 -18.09578784 23.40130222 -19.73828125 26.2578125 C-23.60374574 28.52052342 -26.92956357 28.48869134 -31.30078125 27.7578125 C-33.60546875 26.8515625 -33.60546875 26.8515625 -35.86328125 25.7578125 C-40.04180508 23.75530195 -43.70155198 22.50269573 -48.30078125 23.7578125 C-51.9672013 25.70276679 -55.09484482 28.1347736 -58.30078125 30.7578125 C-59.1515625 31.43328125 -60.00234375 32.10875 -60.87890625 32.8046875 C-67.4041968 38.28913415 -72.04647691 44.39184671 -76.30078125 51.7578125 C-76.87505859 52.72074219 -76.87505859 52.72074219 -77.4609375 53.703125 C-81.54806515 62.18153863 -80.29719174 74.70623811 -77.61328125 83.4453125 C-75.2450999 89.4899712 -72.86031427 93.22209269 -67.17578125 96.6328125 C-59.03749112 99.57457538 -51.34785368 97.87054049 -43.61328125 94.6328125 C-41.30078125 93.7578125 -41.30078125 93.7578125 -38.30078125 93.7578125 C-38.92646133 97.69887784 -40.1869152 100.89717793 -41.86328125 104.5078125 C-44.56712383 110.9560435 -45.67757742 115.60847724 -43.44921875 122.32421875 C-40.31697353 129.47298251 -36.10979217 133.55821272 -29.0546875 136.78515625 C-19.15681517 140.31198432 -7.85104975 140.1795687 1.69921875 135.7578125 C2.38886719 135.46390625 3.07851562 135.17 3.7890625 134.8671875 C14.59302987 129.63126841 26.32835515 118.49953969 31.69921875 107.7578125 C31.79554772 105.94739457 31.82903408 104.13328497 31.82421875 102.3203125 C31.82679688 101.35222656 31.829375 100.38414062 31.83203125 99.38671875 C31.81135848 96.64763421 31.81135848 96.64763421 30.69921875 93.7578125 C30.23280317 89.17776442 29.86334594 85.16207882 32.26171875 81.1328125 C35.70573776 79.19003254 37.80462149 79.14287609 41.69921875 79.7578125 C44.63671875 82.0703125 44.63671875 82.0703125 46.69921875 84.7578125 C46.69921875 85.7478125 46.69921875 86.7378125 46.69921875 87.7578125 C47.35921875 87.7578125 48.01921875 87.7578125 48.69921875 87.7578125 C48.63872162 85.38027512 48.55154762 83.00862189 48.44921875 80.6328125 C48.43503906 79.96765625 48.42085937 79.3025 48.40625 78.6171875 C48.15923545 73.5780906 46.8310957 70.66547548 43.69921875 66.7578125 C40.49682353 64.05356764 38.47875554 62.87329943 34.32421875 62.2578125 C28.4177352 63.07249989 23.75894366 65.19816069 19.82421875 69.7578125 C16.2912137 74.74558434 15.31269762 78.1910724 15.32421875 84.3203125 C15.32228516 85.37798828 15.32228516 85.37798828 15.3203125 86.45703125 C15.44615902 92.74935726 16.99729071 98.06446413 19.69921875 103.7578125 C14.91041901 108.82830634 10.97715831 112.92674307 3.76171875 113.3203125 C-0.60664635 113.11667443 -3.44748532 112.17558717 -6.828125 109.40234375 C-9.3807898 106.5517552 -10.89081183 103.28711485 -12.30078125 99.7578125 C-13.33378291 104.00459712 -13.43438585 108.02027978 -13.42578125 112.3828125 C-13.42835938 113.69507813 -13.4309375 115.00734375 -13.43359375 116.359375 C-13.45944986 119.74670644 -13.45944986 119.74670644 -12.30078125 122.7578125 C-12.11328125 126.3203125 -12.11328125 126.3203125 -12.30078125 129.7578125 C-14.30078125 131.7578125 -14.30078125 131.7578125 -17.11328125 132.1953125 C-21.31238429 131.61896502 -22.63662932 129.95479482 -25.30078125 126.7578125 C-28.61489649 120.12958203 -26.40421737 109.83556636 -24.4609375 102.984375 C-16.44830106 80.70007299 0.05419108 60.52863822 20.69921875 48.7578125 C28.11129753 45.40729433 35.95159692 44.15298259 43.75 46.7890625 C52.48359329 50.7044966 57.11022098 55.84764432 61.51171875 64.1953125 C68.70287342 85.76877651 64.59628247 110.21983586 54.63671875 130.2578125 C38.58068236 158.69604644 2.95921074 169.33404114 -26.30078125 178.7578125 C-33.74915704 180.76811261 -40.71181731 180.37269952 -47.78125 177.2109375 C-57.21885733 171.76785234 -62.74009298 164.34243949 -66.61328125 154.3828125 C-69.04243169 141.57456473 -66.4716709 130.53708159 -59.30078125 119.7578125 C-57.15799072 117.18725603 -54.92000347 114.75170176 -52.62109375 112.3203125 C-48.39573372 107.65392162 -44.1284814 102.4132128 -41.30078125 96.7578125 C-51.14336006 101.92994399 -51.14336006 101.92994399 -59.80078125 108.8203125 C-68.36435352 116.9807034 -79.34863615 121.19446285 -91.078125 121.0234375 C-101.21609868 120.1878227 -108.76789689 115.43042669 -115.30078125 107.7578125 C-119.98985663 100.60802864 -121.10247875 94.19253549 -120.30078125 85.7578125 C-119.36870219 81.41017689 -118.06486419 77.22906388 -116.67578125 73.0078125 C-116.3082373 71.85966064 -115.94069336 70.71150879 -115.56201172 69.52856445 C-112.82998775 61.10690712 -109.91675005 52.84486452 -106.30078125 44.7578125 C-105.94258301 43.93941895 -105.58438477 43.12102539 -105.21533203 42.27783203 C-96.5606449 22.64612264 -87.18577031 9.02052651 -66.85546875 0.07421875 C-60.48131896 -2.28631804 -53.92682849 -3.77224528 -47.30078125 -5.2421875 C-46.66857666 -5.41943359 -46.03637207 -5.59667969 -45.38500977 -5.77929688 C-31.07084929 -8.9583584 -12.79192191 -6.92268715 0 0 Z " fill="#895930" transform="translate(182.30078125,262.2421875)"/>
<path d="M0 0 C2.90376355 2.72227833 5.44084969 5.50069577 7.8125 8.69921875 C8.33070313 9.37339844 8.84890625 10.04757812 9.3828125 10.7421875 C22.11503204 28.89300279 37.74940685 63.2304557 34.8125 85.69921875 C31.45704375 95.65415169 25.79209797 102.23639974 16.5625 107.07421875 C9.02463554 110.65626178 0.37881312 111.05239392 -7.6015625 108.6875 C-12.11584806 106.85872008 -15.85681627 105.30828799 -19.1875 101.69921875 C-19.950625 101.24546875 -20.71375 100.79171875 -21.5 100.32421875 C-24.1875 98.69921875 -24.1875 98.69921875 -26.89453125 96.3671875 C-30.21195663 93.56755187 -33.76881097 91.47364372 -37.5625 89.38671875 C-38.20316406 89.02771484 -38.84382813 88.66871094 -39.50390625 88.29882812 C-41.0620163 87.42675161 -42.62432222 86.56217854 -44.1875 85.69921875 C-41.92442179 89.78325061 -39.14295464 93.16104606 -36.0625 96.63671875 C-25.65766584 108.67426335 -17.33831552 120.32228248 -17.71484375 136.7421875 C-18.83446663 146.11555919 -22.8400216 154.7321822 -29.8984375 161.08203125 C-37.12072672 166.18446766 -45.31060684 169.43244892 -54.1875 168.69921875 C-56.93992486 168.01041253 -59.4689031 167.27088841 -62.125 166.32421875 C-63.25977783 165.93254517 -63.25977783 165.93254517 -64.41748047 165.53295898 C-74.51332007 161.97855428 -84.43297761 157.94640679 -94.32763672 153.87158203 C-96.82761731 152.84674792 -99.33530287 151.84551543 -101.84765625 150.8515625 C-121.66257093 142.8387444 -134.46531199 130.31362325 -143.4765625 110.92578125 C-150.733874 93.3641954 -153.86850934 71.97745186 -147.1875 53.69921875 C-143.29146282 44.99685533 -138.01747201 40.43316517 -129.875 35.82421875 C-120.5610211 32.98266587 -112.09880611 34.59850297 -103.640625 39.03515625 C-82.92692948 51.30772151 -67.19124119 71.84637398 -60.1875 94.69921875 C-58.66997239 100.88458444 -57.65356047 108.77349672 -60.01171875 114.80859375 C-61.48830467 117.02621721 -63.30795864 118.81967739 -65.1875 120.69921875 C-68.25365383 121.02540533 -70.35568287 121.12854372 -73.125 119.69921875 C-75.07446534 116.02963694 -73.7493767 111.67193912 -72.65234375 107.8203125 C-72.05275334 105.08436636 -72.01749624 102.49861759 -72 99.69921875 C-71.98582031 98.66796875 -71.97164063 97.63671875 -71.95703125 96.57421875 C-72.18473053 93.73376672 -72.72245939 92.10813927 -74.1875 89.69921875 C-74.744375 90.77171875 -75.30125 91.84421875 -75.875 92.94921875 C-78.40791814 97.38631649 -81.28277577 100.06431067 -86.1875 101.69921875 C-92.717155 102.46741346 -96.0949081 100.3525999 -101.1875 96.69921875 C-102.1775 96.03921875 -103.1675 95.37921875 -104.1875 94.69921875 C-103.73341412 90.52162861 -102.94773721 86.8173877 -101.625 82.82421875 C-99.4360417 75.7074085 -99.25383853 69.39859552 -102.21875 62.48046875 C-105.24670198 56.91294414 -110.36914854 53.77561517 -116.1875 51.69921875 C-120.57872518 51.09353252 -122.52549311 51.3427535 -126.4375 53.44921875 C-130.24213499 56.56210193 -132.22356296 58.89587148 -133.1875 63.69921875 C-133.4073223 65.94629116 -133.59233987 68.19693113 -133.75 70.44921875 C-133.83378906 71.6196875 -133.91757812 72.79015625 -134.00390625 73.99609375 C-134.09478516 75.33414063 -134.09478516 75.33414063 -134.1875 76.69921875 C-133.5275 76.69921875 -132.8675 76.69921875 -132.1875 76.69921875 C-132.105 75.93609375 -132.0225 75.17296875 -131.9375 74.38671875 C-131.1875 71.69921875 -131.1875 71.69921875 -129.5625 69.88671875 C-126.21709229 68.21401489 -123.87763497 68.23795188 -120.1875 68.69921875 C-117.75 70.07421875 -117.75 70.07421875 -116.1875 72.69921875 C-115.62294261 77.55441228 -115.97934999 81.9874337 -117.1875 86.69921875 C-118.14458727 93.71382036 -117.08200116 98.02851652 -112.81640625 103.6796875 C-112.27886719 104.34613281 -111.74132812 105.01257813 -111.1875 105.69921875 C-110.445 106.70984375 -109.7025 107.72046875 -108.9375 108.76171875 C-99.6924592 119.35255663 -87.25894421 126.63757341 -73.3359375 127.97265625 C-64.07792172 128.31168218 -55.22131983 125.94076482 -47.625 120.44921875 C-43.20908349 115.46715909 -40.43253152 109.69803924 -40.7890625 102.8828125 C-41.84087288 97.11847913 -43.94367128 91.56496184 -47.1875 86.69921875 C-47.1875 85.37921875 -47.1875 84.05921875 -47.1875 82.69921875 C-43.1875 84.03255208 -39.1875 85.36588542 -35.1875 86.69921875 C-27.12550187 87.26573754 -19.99791036 87.70979841 -13.54296875 82.328125 C-6.73763008 75.42343833 -5.89406049 66.40528664 -5.75 57.13671875 C-5.87244647 43.47049799 -12.28580551 33.75225052 -21.5625 23.94921875 C-27.786398 17.99842482 -34.64268933 12.31384749 -43.48046875 12.328125 C-47.78279632 12.91791017 -51.42554629 14.7927115 -55.29296875 16.703125 C-58.72974224 17.88582033 -60.71081867 17.64605962 -64.1875 16.69921875 C-67.11729055 14.25772663 -67.20455994 12.57979915 -67.75 8.76171875 C-67.67800912 6.19404389 -67.49079076 5.06580497 -65.83984375 3.0703125 C-64.1875 1.69921875 -64.1875 1.69921875 -61.1875 -0.30078125 C-66.17454856 -0.65559103 -70.01669691 -0.88618279 -74.5625 1.38671875 C-78.6670278 5.00261229 -81.94392578 8.2634766 -82.5 13.82421875 C-81.97358781 20.35172994 -79.51834738 24.80320348 -74.625 29.13671875 C-69.34985494 33.44847429 -63.74481574 33.319732 -57.1875 32.69921875 C-52.32527653 31.41701361 -47.82237993 29.78002843 -43.6171875 27 C-41.1875 25.69921875 -41.1875 25.69921875 -39.04296875 25.76953125 C-36.63493189 26.97608445 -35.84544887 28.25682102 -34.5 30.57421875 C-34.08363281 31.27289063 -33.66726563 31.9715625 -33.23828125 32.69140625 C-30.83781002 37.27818027 -30.56250321 41.62980031 -31.1875 46.69921875 C-33.42168103 51.08483337 -36.13341251 53.92536942 -40.1875 56.69921875 C-40.8475 56.69921875 -41.5075 56.69921875 -42.1875 56.69921875 C-42.1875 57.35921875 -42.1875 58.01921875 -42.1875 58.69921875 C-34.99228715 58.99948266 -28.87780528 58.9941947 -22.125 56.375 C-19.39359791 55.42231339 -17.04156341 55.35116224 -14.1875 55.69921875 C-12.1875 57.69921875 -12.1875 57.69921875 -11.75 60.51171875 C-12.32634748 64.71082179 -13.99051768 66.03506682 -17.1875 68.69921875 C-24.10248906 72.15671328 -36.48801124 70.67233807 -43.68359375 68.5703125 C-47.64829694 67.20386663 -51.40668129 65.51033941 -55.1875 63.69921875 C-56.66089844 63.01472656 -56.66089844 63.01472656 -58.1640625 62.31640625 C-74.50864863 54.07345936 -89.16881407 40.78369588 -97.3515625 24.36328125 C-99.48458148 17.56552917 -99.56289082 7.48471068 -96.5 1.01171875 C-91.3007277 -7.23851542 -82.86862187 -12.76231873 -73.71875 -15.7578125 C-48.40129584 -21.1885627 -20.13924147 -16.97341374 0 0 Z " fill="#895930" transform="translate(405.1875,273.30078125)"/>
<path d="M0 0 C6.92120011 5.54482509 11.45827645 13.00933492 13.8125 21.52734375 C15.24898038 35.474566 11.29634197 46.52631789 2.8125 57.52734375 C0.03590397 60.43765687 -2.81362981 63.21858685 -5.71875 66 C-8.64555535 68.99627067 -10.42728714 71.75545905 -12.1875 75.52734375 C-5.02221527 72.88886345 1.66174728 68.66864665 7.25 63.46484375 C16.23015116 55.35655193 26.3719625 53.1044561 38.05078125 53.3203125 C47.02298178 53.81410962 53.39183405 57.26875287 59.8125 63.52734375 C65.8705839 71.16259305 67.76303471 78.89091316 66.8125 88.52734375 C65.52298815 93.7348074 63.76330414 98.74068649 61.9375 103.77734375 C61.43618988 105.19348548 60.93521728 106.60974674 60.43457031 108.02612305 C48.18012824 142.357791 48.18012824 142.357791 38.8125 154.52734375 C37.8534375 155.80738281 37.8534375 155.80738281 36.875 157.11328125 C27.53535393 168.5474803 14.65420546 173.63780877 0.8125 177.52734375 C-0.40759766 177.89666016 -0.40759766 177.89666016 -1.65234375 178.2734375 C-18.25798394 182.50510328 -39.7452558 180.40859735 -54.69140625 172.1953125 C-60.59935192 168.24743644 -63.98889089 163.28545553 -66.1875 156.52734375 C-67.87830082 143.90531906 -65.27947412 135.1572525 -57.57421875 125.02734375 C-45.2775545 109.57153988 -27.00845644 96.00585597 -7.1875 92.52734375 C-4.03935902 92.23995297 -0.91044258 92.12568151 2.25 92.08984375 C3.38659058 92.074375 3.38659058 92.074375 4.54614258 92.05859375 C10.15934369 92.14829533 14.03766131 93.58495667 18.6875 96.83984375 C20.4554285 99.49173651 20.26365221 101.43372859 19.8125 104.52734375 C18.1875 106.46484375 18.1875 106.46484375 15.8125 107.52734375 C12.22705325 107.3643689 9.37666316 106.3546139 6.125 104.96484375 C1.1523639 102.98928096 -3.90707029 103.04477372 -9.1875 103.52734375 C-9.5175 103.85734375 -9.8475 104.18734375 -10.1875 104.52734375 C-9.28 105.08421875 -8.3725 105.64109375 -7.4375 106.21484375 C-3.76346747 108.8290592 -1.20826161 111.48582053 0.8125 115.52734375 C1.38726384 124.00511034 -1.36121759 129.70397896 -6.1875 136.52734375 C-10.28690558 135.22575207 -14.14796588 133.67790167 -18.0625 131.90234375 C-25.76658291 128.69151758 -31.28001086 128.70690887 -39.14453125 131.6171875 C-43.13798203 133.39629655 -45.49378034 135.54656768 -48 139.08984375 C-49.80576607 144.31706132 -50.71590994 150.28763722 -48.2734375 155.46484375 C-45.54274593 158.98831675 -42.34653672 161.08767719 -38.1875 162.52734375 C-35.16784848 162.75010493 -32.20821326 162.70858655 -29.1875 162.52734375 C-29.991875 161.90859375 -30.79625 161.28984375 -31.625 160.65234375 C-34.1875 158.52734375 -34.1875 158.52734375 -35.1875 156.52734375 C-35.65526074 149.16011211 -35.65526074 149.16011211 -33.9140625 146.8046875 C-31.40112359 144.94556754 -28.97007865 145.01120025 -25.92578125 145.0859375 C-21.43104384 145.81048148 -17.43295525 147.66950127 -13.30078125 149.53125 C-9.67254561 150.69210331 -7.82241182 150.60184498 -4.1875 149.52734375 C7.22344029 143.06226959 16.93749107 133.22228341 22.8125 121.52734375 C23.225 120.73714844 23.6375 119.94695312 24.0625 119.1328125 C28.28438223 110.05869756 28.05279024 100.19190447 24.7890625 90.8125 C22.04108762 84.38223878 19.14820087 79.89739741 12.8125 76.52734375 C5.63808542 74.31869133 -1.29135855 75.19492888 -8.203125 77.79296875 C-10.49616425 78.64157383 -12.77609251 79.13840706 -15.1875 79.52734375 C-14.77279479 75.58764427 -13.75252817 72.46795317 -12.125 68.90234375 C-9.21438218 61.84887575 -9.01756525 54.38691174 -11.3125 47.08984375 C-13.90305277 41.35022454 -18.3181275 38.68743663 -23.875 36.21484375 C-33.7812042 32.89015878 -47.46904033 32.45028691 -56.9921875 37.12890625 C-61.36250122 39.91284275 -65.27345102 43.14401328 -69.1875 46.52734375 C-69.80367188 46.99914062 -70.41984375 47.4709375 -71.0546875 47.95703125 C-77.67435954 53.11244403 -85.17267737 60.8412272 -86.375 69.40234375 C-86.44143439 73.11602637 -85.40269904 76.02471122 -84.1875 79.52734375 C-83.52410728 84.6520525 -83.35144372 88.26059181 -86.25 92.65234375 C-89.95346042 95.01625466 -91.87267943 95.31185658 -96.1875 94.52734375 C-98.625 92.21484375 -98.625 92.21484375 -100.1875 89.52734375 C-100.1875 88.53734375 -100.1875 87.54734375 -100.1875 86.52734375 C-100.8475 86.52734375 -101.5075 86.52734375 -102.1875 86.52734375 C-102.15495434 98.54595936 -102.15495434 98.54595936 -96.1875 108.52734375 C-91.98051296 111.13619403 -88.00319883 111.16785542 -83.1875 110.52734375 C-77.88388843 108.80297092 -74.21148048 106.29592836 -71.1875 101.52734375 C-69.10405538 97.32271094 -68.80435474 93.39733731 -68.8125 88.77734375 C-68.81048584 88.06868164 -68.80847168 87.36001953 -68.80639648 86.62988281 C-68.90557166 81.50094195 -69.80332639 77.71282121 -72.41015625 73.32421875 C-73.1875 71.52734375 -73.1875 71.52734375 -73.0234375 69.4921875 C-71.99515688 67.07524753 -70.7846173 65.98530348 -68.75 64.33984375 C-68.13253906 63.83066406 -67.51507813 63.32148438 -66.87890625 62.796875 C-62.47496122 59.49137354 -57.48590301 60.10500728 -52.1875 60.52734375 C-46.89450781 62.667064 -44.27395428 66.89766234 -41.1875 71.52734375 C-38.92296226 64.73373052 -40.12599724 57.65942982 -41.84765625 50.8515625 C-42.24700235 48.1204024 -41.96185079 46.16898616 -41.1875 43.52734375 C-39.1875 41.52734375 -39.1875 41.52734375 -36.3125 41.15234375 C-32.52553807 41.60677918 -31.51823695 42.59234167 -29.1875 45.52734375 C-25.53545797 52.8314278 -27.85044908 64.74882873 -30.1875 72.21484375 C-38.12731943 93.28332234 -54.70349463 115.31959525 -75.1875 125.52734375 C-82.14684563 128.49150948 -90.85737461 128.94532798 -98.07421875 126.58203125 C-106.92994109 122.37258476 -112.12291543 116.20495131 -115.453125 107.046875 C-119.09805568 93.32052891 -120.20895587 78.32509751 -116.1875 64.52734375 C-115.94257813 63.54121094 -115.69765625 62.55507812 -115.4453125 61.5390625 C-110.88983938 44.70800031 -100.40394191 28.13947657 -85.234375 19.03515625 C-83.80856543 18.22930722 -82.37592789 17.43544706 -80.9375 16.65234375 C-80.15882568 16.22526123 -79.38015137 15.79817871 -78.57788086 15.3581543 C-70.04245598 10.77331911 -61.21025693 7.03549007 -52.1875 3.52734375 C-51.34912598 3.20072754 -50.51075195 2.87411133 -49.64697266 2.53759766 C-47.12350499 1.56289446 -44.59497984 0.60336783 -42.0625 -0.34765625 C-41.30525635 -0.63406982 -40.5480127 -0.9204834 -39.76782227 -1.21557617 C-26.28700607 -6.16027709 -12.56930372 -8.46183483 0 0 Z " fill="#895830" transform="translate(373.1875,68.47265625)"/>
<path d="M0 0 C1.07169434 0.40275146 2.14338867 0.80550293 3.24755859 1.22045898 C60.12152287 22.89567522 60.12152287 22.89567522 73.5 50.625 C77.6429472 60.16528675 80.83447014 69.68120002 81.1875 80.125 C81.2390625 81.32898438 81.290625 82.53296875 81.34375 83.7734375 C81.7319828 96.84019839 80.89216386 110.65587725 72.1875 121.125 C66.18579587 126.85833525 59.68208194 130.23407337 51.3125 130.5625 C45.48036505 130.40940646 41.20555744 129.02275148 36.1875 126.125 C35.218125 125.568125 34.24875 125.01125 33.25 124.4375 C28.62662683 120.94638148 24.41046337 117.08662667 20.1875 113.125 C19.69910645 112.67592285 19.21071289 112.2268457 18.70751953 111.76416016 C4.72342881 98.8429504 -8.6384259 80.33520811 -9.97265625 60.77734375 C-10.17044934 55.07574296 -9.62308976 51.12160401 -6.8125 46.125 C-3.36004176 43.82336118 -1.86511287 43.78009678 2.1875 44.125 C4.1875 46.125 4.1875 46.125 4.375 49.5 C4.1875 53.125 4.1875 53.125 3.6875 54.94140625 C3.01447789 57.88062 3.01713622 60.67495226 3 63.6875 C2.98582031 64.82316406 2.97164063 65.95882812 2.95703125 67.12890625 C2.95578161 70.3074443 2.95578161 70.3074443 5.1875 73.125 C5.744375 72.2175 6.30125 71.31 6.875 70.375 C9.48921545 66.70096747 12.14597678 64.14576161 16.1875 62.125 C24.09335077 61.45501265 27.96998846 63.66052308 34.125 68.375 C34.805625 68.9525 35.48625 69.53 36.1875 70.125 C35.67360622 72.28036032 35.10426447 74.38721348 34.43359375 76.5 C31.74736261 85.22051849 30.29121463 94.737062 34.0703125 103.375 C36.92477942 107.8463328 41.34054043 111.07580281 46.1875 113.125 C51.54718704 113.55037199 54.85689687 113.61354141 59.1875 110.125 C63.60276083 105.21915463 64.31447193 101.94916522 64.25 95.4375 C64.24097656 94.25800781 64.23195312 93.07851562 64.22265625 91.86328125 C64.21105469 90.95964844 64.19945312 90.05601562 64.1875 89.125 C63.259375 90.8265625 63.259375 90.8265625 62.3125 92.5625 C60.4375 96 60.4375 96 58.1875 97.125 C54.46116541 97.47003098 52.04814 97.61048923 48.75 95.75 C45.54424019 90.36432351 47.01045503 84.01022483 48.1875 78.125 C49.05629694 71.22357082 48.22489786 66.92203842 44.01171875 61.34375 C43.40972656 60.6115625 42.80773437 59.879375 42.1875 59.125 C41.59582031 58.3721875 41.00414062 57.619375 40.39453125 56.84375 C32.06104107 46.80919687 21.50284137 40.23011379 9.1875 36.125 C-1.17782355 35.44659983 -10.58460225 35.9798102 -19.21875 42.1015625 C-20.8125 43.125 -20.8125 43.125 -22.8125 43.125 C-23.10125 43.7025 -23.39 44.28 -23.6875 44.875 C-24.8125 47.125 -24.8125 47.125 -25.859375 48.8203125 C-28.64986806 55.56781622 -27.60774454 65.1516641 -24.875 71.75 C-24.51535156 72.48476562 -24.15570313 73.21953125 -23.78515625 73.9765625 C-22.71427797 76.34195628 -22.23813614 78.57118317 -21.8125 81.125 C-25.59122103 80.62779986 -28.97680181 79.73859291 -32.5625 78.5 C-39.09377878 76.50624122 -45.3615407 76.63472004 -51.5625 79.6875 C-57.44745105 83.5134138 -61.09117472 89.42747981 -62.8125 96.125 C-64.35783021 110.3266328 -62.79565936 121.90810581 -53.9375 133.4375 C-52.58234991 135.01724666 -51.20841455 136.58115616 -49.8125 138.125 C-49.25691406 138.76179687 -48.70132813 139.39859375 -48.12890625 140.0546875 C-42.81649554 145.78750481 -36.10852058 151.18768642 -28.375 152.875 C-23.86575441 151.92568514 -19.93509032 150.18562091 -15.77734375 148.21875 C-12.53607894 147.02302649 -10.23976963 146.8199301 -6.8125 147.125 C-3.9375 148.625 -3.9375 148.625 -1.8125 151.125 C-1.29435733 154.38929885 -1.03452439 156.05564312 -1.8125 159.125 C-4.1875 162.125 -4.1875 162.125 -6.8125 164.125 C-7.4725 164.125 -8.1325 164.125 -8.8125 164.125 C-8.8125 164.785 -8.8125 165.445 -8.8125 166.125 C1.91683357 164.68333244 1.91683357 164.68333244 10.5 158.5625 C13.61038932 154.06971542 13.90989475 150.50856084 13.1875 145.125 C11.37786977 139.93616231 8.35253901 136.83515119 3.625 134.125 C-4.05408395 130.75898252 -11.56023945 130.97889846 -19.3125 134 C-21.57497701 135.01811466 -23.77263224 136.10405498 -25.96875 137.2578125 C-27.8125 138.125 -27.8125 138.125 -29.8125 138.125 C-33.75238521 136.1550574 -35.47116334 132.14900999 -36.8125 128.125 C-37.94951038 118.28050503 -37.94951038 118.28050503 -35.61328125 113.8515625 C-32.9964307 110.72716159 -30.52719388 108.82083851 -26.8125 107.125 C-31.36276562 104.84986719 -37.06435593 105.57683361 -41.77734375 107.0546875 C-43.65412084 107.78524502 -45.51901162 108.54749847 -47.3671875 109.34765625 C-50.06857005 110.20640246 -51.21997277 110.19680238 -53.8125 109.125 C-55.8125 107.125 -55.8125 107.125 -56.3125 103.8125 C-55.79466523 99.99346855 -55.71728062 99.56272271 -53 97.25 C-46.36277742 92.82518495 -38.41376868 93.13723806 -30.73583984 94.49121094 C-15.7364691 97.84766468 -2.22252246 104.81131421 9.1875 115.125 C9.87070313 115.73859375 10.55390625 116.3521875 11.2578125 116.984375 C19.40473211 124.71596145 28.3296373 134.47379212 29.62109375 145.9921875 C29.6449695 147.32791227 29.64575087 148.66422303 29.625 150 C29.61525146 150.70253906 29.60550293 151.40507812 29.59545898 152.12890625 C29.30938629 160.52295797 27.14770762 165.53378019 21.1875 171.375 C6.27381824 183.76596942 -14.45208859 182.46136356 -32.70849609 180.87304688 C-46.77690524 179.03072237 -63.5634803 172.25272683 -72.8125 161.125 C-85.2701453 144.32942463 -92.17819774 124.7670651 -98.8125 105.125 C-99.07111816 104.36396973 -99.32973633 103.60293945 -99.59619141 102.81884766 C-102.90970492 92.88791848 -104.75026526 83.31143559 -100.91796875 73.25390625 C-96.83081239 65.38288075 -89.72384548 59.43438159 -81.5 56.3125 C-70.83672224 53.18364615 -60.46775546 55.5783929 -50.78515625 60.73828125 C-45.99725201 63.70034547 -41.62180403 66.96009639 -37.4296875 70.7109375 C-33.20284796 74.40686966 -29.08032638 77.14731774 -23.8125 79.125 C-26.91613131 74.08616329 -30.22557542 69.53580806 -34.25 65.1875 C-45.0388935 53.43596113 -50.7442591 43.17976311 -50.13671875 27.1328125 C-49.51778689 17.52037623 -45.62099611 10.62832463 -38.6875 4 C-26.73910764 -6.17465059 -14.03543706 -5.46950984 0 0 Z " fill="#895830" transform="translate(165.8125,65.875)"/>
<path d="M0 0 C6.44171588 3.04226352 9.72535574 8.24920742 13.2890625 14.19140625 C18.73021688 23.12334689 25.66024341 31.03825431 35 36 C32.13426373 38.95529053 29.19937479 41.7077533 26.0625 44.375 C19.47155109 50.15285989 15.08646404 56.13206184 11.06640625 63.93774414 C8.21442784 69.26227541 4.83999797 73.05333401 -1 75 C-6.02138755 75.37195463 -9.10202012 75.29829067 -13 72 C-15.79704481 68.37759771 -18.17109137 64.51768658 -20.36328125 60.50390625 C-25.76203021 50.75574263 -34.03602212 44.38495631 -43 38 C-39.81703982 34.71094115 -36.49527665 31.65392058 -33.0625 28.625 C-25.80328324 22.08419908 -20.91675585 15.48366506 -16.125 6.98828125 C-12.10593927 1.3364771 -6.97057555 -1.66716214 0 0 Z " fill="#895930" transform="translate(57,215)"/>
<path d="M0 0 C6.68804852 2.88120609 9.53561826 8.38817806 12.7890625 14.53149414 C17.89909723 23.88221648 25.67210666 30.89605836 35 36 C33.47717197 40.23869966 30.33877482 42.1836771 26.8125 44.6875 C18.97082007 50.5113373 14.20514657 56.78037761 9.4375 65.3125 C6.74399667 70.01116693 5.06212282 72.93382742 0 75 C-4.35316099 75.80581652 -6.99158131 75.54175685 -10.9375 73.421875 C-14.55012387 70.56495306 -16.59795148 67.62399313 -19 63.75 C-19.86962558 62.40009472 -20.74070822 61.05112694 -21.61328125 59.703125 C-22.02529785 59.06052734 -22.43731445 58.41792969 -22.86181641 57.75585938 C-27.858109 50.04815103 -33.68177702 42.28514517 -42 38 C-40.48468753 33.75712508 -37.71726317 32.33240042 -34 30 C-27.76889092 25.84592728 -24.04170378 19.3937654 -20.2421875 13.078125 C-15.58195431 5.34589953 -10.36459564 -2.64585647 0 0 Z " fill="#895931" transform="translate(453,215)"/>
<path d="M0 0 C3.53045093 1.17681698 4.10920827 2.1739086 6.25 5.125 C11.6238283 12.20409324 16.76884423 17.09997779 24.5 21.53125 C35.70253165 28.11273734 35.70253165 28.11273734 38 34 C38.51313806 38.03179902 38.32305205 40.32580443 36.5625 44 C31.44101441 49.99588557 24.85101244 54.23607871 18.23828125 58.4453125 C12.64867665 62.32779528 8.82964456 66.16102692 5.125 71.8125 C4.7228125 72.40998047 4.320625 73.00746094 3.90625 73.62304688 C2.92943347 75.07664291 1.96353577 76.53756682 1 78 C-0.51930029 76.03462608 -1.94521663 74.09183237 -3.21875 71.95703125 C-8.31808842 63.42185809 -15.74992508 57.74391515 -24.3125 52.875 C-29.41760951 49.96476241 -33.35009231 46.29981538 -36 41 C-36.55004295 35.27955337 -35.64364029 32.43145441 -32 28 C-28.90306377 24.99691032 -25.47767218 23.17158185 -21.6875 21.1875 C-11.93678355 15.93309248 -6.19057423 9.10475411 0 0 Z " fill="#895931" transform="translate(250,19)"/>
<path d="M0 0 C3.38730402 1.12910134 3.67259926 1.65668665 5.5625 4.5 C11.60744465 12.79147665 19.43405464 18.63750868 28.17773438 23.81811523 C32.58909422 26.48758881 35.68120809 29.36241617 38 34 C38.39364927 38.0939524 38.28843277 40.4453216 36.375 44.125 C32.16269613 49.22410469 27.94170849 52.05814646 22.1875 55.1875 C13.37988792 60.20324931 7.59131411 67.70321132 2 76 C-1.67942445 74.77352518 -2.04079244 73.7188366 -4.0625 70.5 C-10.61076202 60.92316679 -18.69016754 55.21000511 -28.8984375 50.1171875 C-32.85127827 47.41890073 -33.99542444 45.31419524 -36 41 C-36.57095918 36.93191583 -36.33471604 34.73028955 -34.625 31 C-30.95420185 26.80480211 -26.63738918 24.04515255 -22 21 C-13.0151355 14.92773991 -6.53980499 8.65063543 0 0 Z " fill="#895931" transform="translate(250,408)"/>
<path d="M0 0 C4.3674107 2.11420719 7.246716 4.91715424 10 8.875 C11.23927937 12.74774803 11.7238474 15.97862555 11 20 C8.25268663 25.29112204 4.71874267 29.09375244 -1 31 C-5.66694522 31.54225459 -9.07771048 31.4698456 -13.3125 29.3125 C-18.00394078 25.27567887 -20.70956525 22.02052143 -21.3125 15.75 C-20.82892095 9.94705136 -18.6563735 6.49862364 -14.375 2.625 C-9.69520214 -0.57696696 -5.5837095 -0.85589708 0 0 Z " fill="#8A5A31" transform="translate(256,236)"/>
<path d="M0 0 C3.0603333 1.7655769 5.50587755 3.50587755 8 6 C8.45335087 10.60906715 8.67126449 12.89720834 6.25 16.875 C3.69142573 19.29143125 1.60861766 20.8151387 -1.9375 21.22265625 C-8.32157904 20.72692284 -12.76539822 18.11562818 -18.10546875 14.69140625 C-21.0176248 12.98970103 -23.77340321 11.95124854 -27 11 C-25.09813978 7.19627956 -20.05528356 6.05596946 -16.3125 4.375 C-15.41337891 3.95476562 -14.51425781 3.53453125 -13.58789062 3.1015625 C-5.02700297 -0.76748137 -5.02700297 -0.76748137 0 0 Z " fill="#FBF9F8" transform="translate(450,242)"/>
<path d="M0 0 C0.77472656 0.37705078 1.54945312 0.75410156 2.34765625 1.14257812 C4.23685944 2.06385622 6.11917947 2.99922703 8 3.9375 C8 4.5975 8 5.2575 8 5.9375 C-2.3515625 11.11328125 -2.3515625 11.11328125 -4.20825195 12.03369141 C-5.88989148 12.88195814 -7.54946689 13.77357044 -9.20703125 14.66796875 C-13.1356393 16.45369968 -15.95375709 16.32239963 -20 14.9375 C-22.99021018 12.46732638 -24.85373748 10.15689378 -27 6.9375 C-26.76890844 2.54676029 -25.02322704 0.04470557 -22 -3.0625 C-14.75559997 -7.48963335 -6.79439268 -3.40897172 0 0 Z " fill="#FAF9F7" transform="translate(70,247.0625)"/>
<path d="M0 0 C7.15419554 0.75435395 11.38990562 3.12527535 16.234375 8.4921875 C21.31070633 14.77780195 22.59203933 20.18108928 23.046875 28.1171875 C12.56224523 26.6776994 6.33652216 23.12014521 -0.5078125 15.08203125 C-3.73188065 10.6990413 -4.36042525 7.61574091 -3.953125 2.1171875 C-1.953125 0.1171875 -1.953125 0.1171875 0 0 Z " fill="#8A5A32" transform="translate(269.953125,266.8828125)"/>
<path d="M0 0 C-0.30335768 8.03897845 -3.31985591 14.92378659 -8.7421875 20.9296875 C-12.83758598 24.58824348 -17.20989314 27.61953088 -22.75 28.375 C-23.4925 28.25125 -24.235 28.1275 -25 28 C-27.47818831 24.28271754 -27.6483676 21.30877205 -27 17 C-23.10572772 9.21145543 -15.93120669 4.18917995 -8 1 C-5.12903066 0.23440818 -2.97332529 0 0 0 Z " fill="#8B5B33" transform="translate(293,209)"/>
<path d="M0 0 C3.05802244 0.71116801 3.62332233 1.20451233 5.5 3.625 C8.98809548 9.92140239 9.08046424 17.67173182 7.6875 24.625 C6.01744104 29.33267996 3.46506141 33.48700035 0.6875 37.625 C-5.84097631 31.58372341 -8.4544758 24.81403109 -8.8125 15.9375 C-8.59066721 9.98214289 -6.48732315 1.75333058 0 0 Z " fill="#8A5A32" transform="translate(251.3125,273.375)"/>
<path d="M0 0 C9.72918068 0.82801538 17.34033362 4.85571001 24 12 C27.24244473 16.7623407 27.46609409 20.40687086 27 26 C26.34 26.66 25.68 27.32 25 28 C18.07877076 28 13.89500611 25.84433317 9 21 C4.00698048 14.89115896 0 8.0401916 0 0 Z " fill="#8A5A32" transform="translate(209,209)"/>
<path d="M0 0 C2 2 2 2 2.4375 5.125 C1.63161419 12.26284578 -2.53152024 17.27683645 -8.04296875 21.68359375 C-13.23918575 25.17885349 -18.75240608 27.35922114 -25 28 C-24.67874269 19.64731007 -21.70943209 11.6471933 -15.671875 5.7109375 C-10.23247511 1.44714984 -7.06125761 -0.37828166 0 0 Z " fill="#8A5931" transform="translate(234,267)"/>
<path d="M0 0 C2.87859333 1.45469937 5.66393083 2.97017137 8.41015625 4.66015625 C8.41015625 5.98015625 8.41015625 7.30015625 8.41015625 8.66015625 C0.16186312 14.42195769 -7.55827509 16.39400762 -17.58984375 14.66015625 C-20.66714919 12.88826475 -23.08558534 11.16441466 -25.58984375 8.66015625 C-26.02734375 6.28515625 -26.02734375 6.28515625 -25.58984375 3.66015625 C-18.77491206 -2.9705881 -8.65568938 -3.2305783 0 0 Z " fill="#8A5A31" transform="translate(299.58984375,245.33984375)"/>
<path d="M0 0 C2.3125 1.625 2.3125 1.625 4.3125 3.625 C4.22662516 7.57524253 3.7999858 9.15034277 0.9375 11.9375 C-5.03463838 15.77673182 -11.82295999 15.40650148 -18.6875 14.625 C-22.96001618 13.03036121 -26.80788289 11.01245669 -30.6875 8.625 C-30.45703125 6.79296875 -30.45703125 6.79296875 -29.6875 4.625 C-27.76171875 3.17578125 -27.76171875 3.17578125 -25.375 1.9375 C-24.20517578 1.31294922 -24.20517578 1.31294922 -23.01171875 0.67578125 C-15.99362867 -2.49710317 -7.1621638 -2.67063735 0 0 Z " fill="#8A5A31" transform="translate(223.6875,245.375)"/>
<path d="M0 0 C4.7638355 4.38664031 7.59713573 9.87687787 8.42578125 16.30078125 C8.58614066 23.61823421 7.90371832 28.90839691 3.625 34.9375 C1.39286101 36.39697549 -0.38441573 36.07241846 -3 36 C-7.46621246 28.79025702 -9.54604163 22.48723544 -8 14 C-6.05467568 8.9149577 -3.88565206 3.88565206 0 0 Z " fill="#8A5A32" transform="translate(251,193)"/>
<path d="M0 0 C0.66 0 1.32 0 2 0 C2.23074219 0.53367187 2.46148437 1.06734375 2.69921875 1.6171875 C4.56783831 5.88620768 6.54057953 10.02089132 8.75 14.125 C10.83454593 18.29409186 11.81741397 21.2771637 11 26 C8.97333762 29.70390021 7.51955484 31.65363011 4 34 C0.1026276 34.50835292 -1.50556726 34.32962183 -4.8125 32.125 C-7.76003922 29.26167618 -8.27437125 27.45291136 -8.5625 23.4375 C-8.57395109 14.84918273 -3.89611647 7.41827534 0 0 Z " fill="#FBFAF9" transform="translate(250,420)"/>
<path d="M0 0 C2.92612619 1.82205543 5.43486248 3.86972495 7 7 C7.55220645 13.50764818 6.35906325 17.26187641 3.0625 22.8125 C0.18847231 27.74331364 0.18847231 27.74331364 -2 33 C-2.66 33 -3.32 33 -4 33 C-13.5 14 -13.5 14 -13 8 C-9.78925583 2.13208824 -6.93098855 -0.95131215 0 0 Z " fill="#FBFAF9" transform="translate(254,49)"/>
<path d="M0 0 C-0.85183374 5.79246943 -2.41218055 9.81691884 -7.1875 13.375 C-8.115625 13.91125 -9.04375 14.4475 -10 15 C-8.61735163 12.13132769 -7.07851447 9.43975968 -5.375 6.75 C-4.92898437 6.04359375 -4.48296875 5.3371875 -4.0234375 4.609375 C-3.68570313 4.07828125 -3.34796875 3.5471875 -3 3 C-3.78375 3.495 -4.5675 3.99 -5.375 4.5 C-8 6 -8 6 -10 6 C-10 5.01 -10 4.02 -10 3 C-3.375 0 -3.375 0 0 0 Z " fill="#936743" transform="translate(144,356)"/>
<path d="M0 0 C0.99 0.33 1.98 0.66 3 1 C1.515 3.475 1.515 3.475 0 6 C0.7425 5.690625 1.485 5.38125 2.25 5.0625 C4.50692176 4.1905075 6.6450153 3.52332993 9 3 C9.99 4.485 9.99 4.485 11 6 C1.58997722 9.25968109 1.58997722 9.25968109 -3 10 C-2.49287967 6.28111761 -1.88391785 3.26545761 0 0 Z " fill="#956945" transform="translate(361,138)"/>
<path d="M0 0 C2.97 0.99 5.94 1.98 9 3 C8.34 3.66 7.68 4.32 7 5 C5.68 4.34 4.36 3.68 3 3 C3.66 4.65 4.32 6.3 5 8 C4.01 8.495 4.01 8.495 3 9 C0.70620251 5.55930376 0 4.27709699 0 0 Z " fill="#956A46" transform="translate(358,356)"/>
<path d="M0 0 C0.85851562 0.55300781 0.85851562 0.55300781 1.734375 1.1171875 C-1.49078263 2.85381084 -4.77891666 4.0077803 -8.265625 5.1171875 C-8.925625 4.4571875 -9.585625 3.7971875 -10.265625 3.1171875 C-9.02678181 2.38951747 -7.77394159 1.68563935 -6.515625 0.9921875 C-5.81953125 0.59773437 -5.1234375 0.20328125 -4.40625 -0.203125 C-2.265625 -0.8828125 -2.265625 -0.8828125 0 0 Z " fill="#9A704E" transform="translate(370.265625,141.8828125)"/>
<path d="M0 0 C-0.33 0.66 -0.66 1.32 -1 2 C-3.3140622 2.73075648 -5.64828869 3.40138258 -8 4 C-8 3.01 -8 2.02 -8 1 C-3.375 -1.125 -3.375 -1.125 0 0 Z " fill="#A07958" transform="translate(142,358)"/>
</svg>
