<svg class="w-6 h-6 text-gray-800 dark:text-white" aria-hidden="true" xmlns="http://www.w3.org/2000/svg" width="20" height="20" fill="none" viewBox="0 0 20 20">
    <path stroke="#6BB77B" stroke-linecap="round" stroke-width="2" d="M4.5 19A3.5 3.5 0 0 1 1 15.5V2a1 1 0 0 1 1-1h5a1 1 0 0 1 1 1v13.5A3.5 3.5 0 0 1 4.5 19Zm0 0H18a1 1 0 0 0 1-1v-5a1 1 0 0 0-1-1h-4.938a1 1 0 0 0-.697.283l-4.238 4.124a1.046 1.046 0 0 0-.164.208C6.986 18.228 6.184 18.705 4.5 19Zm0-4h.01m8.925-12.293 3.536 3.536a1 1 0 0 1 0 1.414L8 16.627v-9.9l4.02-4.02a1 1 0 0 1 1.415 0Z"/>
  </svg>